<svg xmlns="http://www.w3.org/2000/svg" width="2624.029" height="1034.032" viewBox="0 0 2624.029 1034.032">
  <g id="Group_792" data-name="Group 792" transform="translate(469.662 71.274)">
    <g id="Group_295" data-name="Group 295" transform="matrix(0.454, 0.891, -0.891, 0.454, 1189.215, -4465.521)" opacity="0.15">
      <path id="Path_9230" data-name="Path 9230" d="M3765.27,2573.051l1.178,2.974-1.178,2.941-2.824,1.062c-1.313-.1-3.282-.243-3.282-.243l-2.82-1.228-1.179-2.565,1.179-2.532a21.449,21.449,0,0,1,6.1-1.471l2.824,1.062Z" transform="translate(19.693 66.823)" fill="#eae3cd"/>
      <path id="Path_9231" data-name="Path 9231" d="M3779.6,2549.52c.281.013.687.055.687.055l2.621,1.255.933,1.995a11.137,11.137,0,0,1,.855.783l.043.046,1.146,2.856-1.1,2.81-2.732,1.117a23.874,23.874,0,0,0-2.945-1.052,8.681,8.681,0,0,1-3.94-4s-.652-5.165,3.433-5.817a6.159,6.159,0,0,1,1-.046Zm.547,7.511,1.7-.856s-2.152.885-1.7.856Zm1.709-.859Z" transform="translate(27.417 59.906)" fill="#eae3cd"/>
      <path id="Path_9232" data-name="Path 9232" d="M3799.511,2529.169l1.232,2.991-1.232,2.958-2.948,1.221-3.282-.023-2.944-1.238-1.232-2.951,1.232-2.918a18.674,18.674,0,0,1,6.226-1.261q1.474.609,2.948,1.221Z" transform="translate(32.99 52.185)" fill="#eae3cd"/>
      <path id="Path_9233" data-name="Path 9233" d="M3798.113,2578.531c2.217.121,4.546,2.794,4.546,2.794l1.169,2.8L3802.6,2587l-2.853,1.162-2.79-1.2c-.282-.294-.557-.6-.557-.6l-2.614-1.107-1.166-2.745,1.14-2.722,2.752-1.2c.5-.013.618-.065,1.6-.055Zm-.357,7.893c.249.01.078,0,0,0Z" transform="translate(34.297 69.379)" fill="#eae3cd"/>
      <path id="Path_9234" data-name="Path 9234" d="M3771.663,2589.166c2.169,5.3,1.37,5.493,1.641,11.212l-1.2,3.089-3.191,1.284-3.155-1.284-1.2-3.073q.191-4.073.383-8.139l1.257-3.089,2.749-1.284q1.36.639,2.718,1.284Z" transform="translate(23.089 74.347)" fill="#eae3cd"/>
      <path id="Path_9235" data-name="Path 9235" d="M3794.883,2606.117l2.843,1.179,1.2,2.8-1.149,2.784a29.015,29.015,0,0,1-2.99,1.408c-.5.524.068-.078-.249.275-.613.705-1.533,1.746-1.533,1.746l-2.9,1.251-3-1.238-1.268-2.964,1.219-2.9c2.283-2.172,4.166-4.373,7.815-4.343Zm.007,8.021c-3.449.347-.272.02,0,0Zm.059-.006Zm0,0Zm-.01,0c-.194.111.029,0,0,0Zm.006,0Zm0,0Zm-.089,0Z" transform="translate(31.93 79.127)" fill="#eae3cd"/>
      <path id="Path_9236" data-name="Path 9236" d="M3804.284,2607.273a10.179,10.179,0,0,1,2.771,7.74l-1.2,2.827-2.84,1.166-2.8-1.19L3799.04,2615a4.746,4.746,0,0,0-.5-2.044l-1.16-2.843s1.084-2.742,1.215-2.87l2.857-1.159c.943.4,1.89.792,2.833,1.189Z" transform="translate(35.9 79.517)" fill="#eae3cd"/>
      <path id="Path_9237" data-name="Path 9237" d="M3823.062,2562.972c.613.128-.118-.075.164.2,1.123,2.257,2.741,2.332,2.741,2.332l2.765,1.337,1.061,2.843-1.287,2.748-3.072,1.074c-2.713-.278-5.068-1.867-7.056-3.406-1.69-1.31-3.289-3.076-3.37-5.356l1.163-3.059c1.247-.557,3.025-1.336,3.025-1.336l3.109,1.179s1.366,3.878,1.242,2.65a3.97,3.97,0,0,0-.485-1.209Zm.154.193c.088.164-.027-.026,0,0Zm.006.007Z" transform="translate(43.747 64.047)" fill="#eae3cd"/>
      <path id="Path_9238" data-name="Path 9238" d="M3807.868,2539.52l2.832,1.133.973,2.234a6.161,6.161,0,0,1,3.5,5.431l-1.127,2.849-2.823,1.229-2.84-1.124s-4.409-3.262-4.464-7.7l1.136-2.84c1.13-.492,2.8-1.245,2.808-1.212Zm-.695,8.991a2.349,2.349,0,0,0,.481,1.087c-.16-.363-.531-1.48-.481-1.087Z" transform="translate(38.713 56.916)" fill="#eae3cd"/>
      <path id="Path_9239" data-name="Path 9239" d="M3827.238,2587.368l1.17,2.856c-.04,2.476-.1,6.181-.1,6.181l-1.192,2.859-2.8,1.2-2.765-1.2c-1.595-3.825-1.245-6.1-1.29-9.023l1.169-2.873,2.919-1.2,2.885,1.2Z" transform="translate(44.453 73.101)" fill="#eae3cd"/>
      <path id="Path_9240" data-name="Path 9240" d="M3825.64,2613.444c.347.006.418.013.418.013l2.831,1.258,1.212,2.718-1.146,2.673-2.693,1.314-.393,1.041c-1.412.505-3.429,1.219-3.429,1.219l-3.168-1.4-1.156-3.164c.193-2.945-.177-2.473,2.362-4.278a7.827,7.827,0,0,1,5.162-1.4Zm.193,8.126c.2,0-.252.033,0,0Zm.206-.072Zm-.072,0Zm.079-.009Zm-.036-.007Zm.046,0Zm.318-.357.658-1.733-.658,1.733Z" transform="translate(44.399 81.264)" fill="#eae3cd"/>
      <path id="Path_9241" data-name="Path 9241" d="M3811.185,2631.636c2.391.213,4.618,1.235,5.225,3.776l.058.351.06.16.049,3.109-1.916,2.24-2.949.125-2.145-1.766-1.428-.5-1.231-3.262,1.264-3.142c1-.366,1.948-1.185,3.013-1.09Zm-2.6,6.289s.5,1.1.014,0c0,0-.115-.278-.014,0Z" transform="translate(39.589 98.747)" fill="#eae3cd"/>
      <path id="Path_9242" data-name="Path 9242" d="M3785.148,2631.413a33.949,33.949,0,0,1,5.565.809l2.808,2.29.252,3.779-2.434,2.9-3.606.167c-.184-.076-.367-.151-.554-.223a8.311,8.311,0,0,0-2.728-.655c-.917-.1-2.29-.167-2.29-.167l-3.111-1.392-1.3-3.037,1.3-3.007c1.248-.553,3.1-1.382,3.135-1.385.976-.046,1.385-.1,2.96-.082Z" transform="translate(29.14 98.747)" fill="#eae3cd"/>
      <path id="Path_9243" data-name="Path 9243" d="M3766.57,2630.538c2.846,6.073.573,1.91,1.566,3.112.416.505,1.1,1.2,1.1,1.2l1.12,2.85-1.166,2.817-2.8,1.123c-5.831-2.348-5.772-4.621-7.236-7.405l-.239-3.138,2.132-2.414,3.184-.223q1.174,1.037,2.345,2.076Z" transform="translate(21.17 98.747)" fill="#eae3cd"/>
      <path id="Path_9244" data-name="Path 9244" d="M3740.932,2605.425c3.846.1,8.351,2.064,8.373,6.7l-1.147,2.85-2.8,1.225-2.8-1.127-.606-1.346c-.062-.007-1.08-.033-1.08-.033l-2.9-1.192c-.5-1.232-1.192-2.984-1.192-2.984l1.231-2.932c.973-.389,1.874-1.189,2.921-1.163Zm1.016,8.3Zm0,0Zm-.118-.262Zm-.534-1.163.534,1.16s-.554-1.71-.534-1.16Z" transform="translate(0 78.712)" fill="#eae3cd"/>
      <path id="Path_9245" data-name="Path 9245" d="M3740.006,2574.62l.118.386s3.108,3.141,3.036,6.4l-1.2,2.846-2.778,1.212-2.719-1.146s-1.3-3.682-1.323-2.68c-.069,3.77-.18.292-.026.495-.731-.822.756,1.811-2.526-2.614a11.836,11.836,0,0,1-1.523-4.176l1.219-3.223c1.366-.573,3.318-1.379,3.318-1.379l3.4,1.3c.521,1.375,1.13,3.036,1,2.571Zm.2.6Zm-.01-.023Z" transform="translate(0 67.943)" fill="#eae3cd"/>
      <path id="Path_9246" data-name="Path 9246" d="M3737.137,2545.262l2.846-1.229,2.853,1.137c.77.763-1.222-1.847,2.329,1.932a8.391,8.391,0,0,1,1.507,3.531l-1.108,2.847-2.81,1.251-2.826-1.1s-3.663-4-.512-.914c.171.168-2.214-1.729-2.214-1.729l-1.222-2.824c.465-1.182,1.137-2.879,1.157-2.9Z" transform="translate(0 58.013)" fill="#eae3cd"/>
      <path id="Path_9247" data-name="Path 9247" d="M3754.959,2525.511l2.653.131,2.813,1.254,1.176,2.768-1.176,2.732a20.121,20.121,0,0,1-5.483,1.385l-2.813-1.133-1.176-3.017,1.176-2.984c.942-.38,1.814-1.185,2.83-1.136Z" transform="translate(17.997 51.349)" fill="#eae3cd"/>
      <path id="Path_9248" data-name="Path 9248" d="M3784.706,2504.862c.5,1.127,1.251,2.8,1.255,2.83l.233,2.65-1.036,2.817-2.99,1.176-2.958-1.176-1.035-2.817c.092-1.071.233-2.666.233-2.666l1.251-2.814,2.541-1.176q1.254.585,2.506,1.176Z" transform="translate(28.248 44.416)" fill="#eae3cd"/>
      <path id="Path_9249" data-name="Path 9249" d="M3808.181,2496.628c.223.013.423.032.423.032l2.794,1.216,1.137,2.862-1.216,2.8s-1.729,2.03-3.7,2.017l-2.821-1.2-1.159-2.82c.016-2.338,1.336-4.677,4.025-4.9.171-.013.341-.009.514-.009Zm.613,7.923c2.241-.56.622-.249,0,0Zm2.224-1.461a6.773,6.773,0,0,0,.622-1.457c-.209.484-.415.969-.622,1.457Z" transform="translate(38.189 41.793)" fill="#eae3cd"/>
      <path id="Path_9250" data-name="Path 9250" d="M3825.643,2504.558c.5,0,.41.006.41.006l2.83,1.215,1.218,2.752-1.14,2.718s-3.478,1.373-2.9,1.347c-.56.081-7.472.992-7.793-4.8l1.137-3.066c1.274-.557,3.085-1.334,3.085-1.334,1.052.39,2.031,1.18,3.148,1.167Zm1.235,2.993-.727-1.821c.242.606.484,1.215.727,1.821Zm-2.725-3.02c-2.067-.255,1.015.1-.014-.009-.049-.007-.052,0,.014.009Zm.317.05Z" transform="translate(44.428 44.114)" fill="#eae3cd"/>
      <path id="Path_9251" data-name="Path 9251" d="M3832.8,2537.528a1.413,1.413,0,0,1,.3.013l3.11,1.383,1.286,2.912.5,1.048-1.205,2.515s-8.31,3.639-9.086-2.65c-.374-3.013,2.041-5.247,5.093-5.221Zm.285,8.828c.138-.1-.2.062.125.013a5.862,5.862,0,0,0,1.9-.95s-2.439.95-2.024.937Zm1.268-7.865-.3.328,1.939,1.189s-2.08-1.851-1.641-1.517Z" transform="translate(47.775 55.485)" fill="#eae3cd"/>
      <path id="Path_9252" data-name="Path 9252" d="M3849.967,2558.462l1.166,2.784v.911l-1.166,2.781-2.814,1.166-2.784-1.166-1.163-2.781v-.911l1.163-2.784,2.817-1.163,2.781,1.163Z" transform="translate(53.225 62.081)" fill="#eae3cd"/>
      <path id="Path_9253" data-name="Path 9253" d="M3842.842,2595.563c1.406.033,3.482.334,3.482.334l2.808,1.356,1.165,2.683-1.189,2.653c-1.569.734-1.755,1-5.346,1.559l-1.6,3.289c-1.222.53-2.951,1.267-2.951,1.267l-2.925-1.323-1.405-3.115c-.194-2.725-1.442.459.527-4.232a7.782,7.782,0,0,1,7.438-4.471Zm.2,8.749c-.046.091-.174.019,0,0Zm.37-.095Zm.016,0Zm-.039,0Zm.029-.007Zm.017,0Zm.285-.285Zm0,0Zm.013-.014Zm0,0Zm.15-.347c2.477-.675-.137.419.01.065.308-.743.056-.255-.01-.065Z" transform="translate(51.691 76.003)" fill="#eae3cd"/>
      <path id="Path_9254" data-name="Path 9254" d="M3836.527,2630.444l-1.005,2.551c-1.386.531-3.367,1.278-3.367,1.278l-3.253-1.376-1.186-3.187a7.8,7.8,0,0,1,5.149-7.01,18.352,18.352,0,0,1,5.529-.462l2.818,1.261,1.182,2.755-1.173,2.725-2.81,1.275c-.626.036-1.547.13-1.884.19Zm-.691.245c-1.553-.812.6-.363-.062-.026-.812.416-.19.151.062.026Zm.288-.154Zm.02,0Zm-.013,0Zm.02,0Z" transform="translate(48.762 98.747)" fill="#eae3cd"/>
      <path id="Path_9255" data-name="Path 9255" d="M3817.268,2660l2.843,1.209,1.209,2.771-1.15,2.741-2.8,1.291c-.2.013-.4.03-.6.049-4.89.475-10.609-1.14-10.917-6.511l1.2-3.273c1.317-.556,3.2-1.336,3.2-1.336l3.233,1.268s-.4,1.677,3.78,1.791Zm-2.591,1.2Zm-.01-.023Zm-.01-.023Zm-.01-.026Zm-.009-.029Zm-.1-.246Zm-.838-.966Zm0,0Zm0-.007Zm-.013,0Zm-.2-.085c-.956-.465.622.213-.023-.026-.2-.072-.161-.059.023.026Z" transform="translate(40.245 98.747)" fill="#eae3cd"/>
      <path id="Path_9256" data-name="Path 9256" d="M3779.6,2665.023c3.108.111,5.965,1.788,8.772,3.308l1.978,2.371-.206,3.027-2.293,1.939c-9.79-.541-7.53-2.07-8.215-2.152-.485-.059-.164.016-.164.016l-2.97-1.228c-.5-1.277-1.209-3.1-1.209-3.1l1.29-3.013c1.006-.393,1.939-1.209,3.017-1.169Z" transform="translate(28.034 98.747)" fill="#eae3cd"/>
      <path id="Path_9257" data-name="Path 9257" d="M3750.1,2646.87c6.381,6.954.129,1.667,2.729,2.4l1.287.193,2.807,1.261,1.163,2.784-1.193,2.755-2.82,1.212c-3.8.1-7.251-1.864-10.081-4.445l-1.314-2.994s1.192-2.994,1.33-3.131l3.1-1.327q1.494.649,2.987,1.291Z" transform="translate(15.109 98.747)" fill="#eae3cd"/>
      <path id="Path_9258" data-name="Path 9258" d="M3735.823,2624.23l1.189,2.9-1.166,2.882-2.807,1.123c-6.944-.242-4.006.233-5.581,1.058l-1.536,1.088-2.634,1.018c-1.074-.442-2.588-1.08-2.588-1.08l-1.018-2.581,1.064-2.614c3.122-3.2,7.632-4.737,12.244-4.9,0,0,1.7.665,2.833,1.114Z" transform="translate(0 98.747)" fill="#eae3cd"/>
      <path id="Path_9259" data-name="Path 9259" d="M3713.534,2589.294c.033,2.872,2.577,5.421,2.624,8.791l-1.2,3-2.984,1.284-2.984-1.2-1.287-2.951c-.049-3.21-2.6-5.48-2.647-8.808l1.206-3.01c1.238-.534,3-1.284,3-1.284l3,1.209q.642,1.484,1.281,2.964Z" transform="translate(0 73.496)" fill="#eae3cd"/>
      <path id="Path_9260" data-name="Path 9260" d="M3707.077,2541.95l1.232-2.849c1.16-.472,2.811-1.13,2.811-1.13l2.751,1.2.927,1.71,1.137,2.888-1.216,2.814-2.83,1.12c-2.312-.056-2.656-.537-3.341-1.117-1.608-1.353-1.487-4.464-1.471-4.638Zm7.862,1.35Zm-1.425-2.965a2.291,2.291,0,0,0-1.474-.628l1.474.628Z" transform="translate(0 55.788)" fill="#eae3cd"/>
      <path id="Path_9261" data-name="Path 9261" d="M3730.592,2519.765l1.189,2.84v.911l-1.189,2.84-2.872,1.189-2.84-1.189-1.189-2.84v-.911l1.189-2.84,2.873-1.188,2.839,1.188Z" transform="translate(0 49.149)" fill="#eae3cd"/>
      <path id="Path_9262" data-name="Path 9262" d="M3756.269,2501.947c.006-.007-1.474,2.424-1.474,2.424-1.065.462-2.572,1.1-2.572,1.1l-2.613-1.208-1.206-2.948a7.791,7.791,0,0,1,7.347-7.285l2.856,1.169,1.238,2.768-1.12,2.722s-2.61,1.667-2.456,1.261Zm.084.373c.22-.278.119-.124,0,0Zm-.412-.281c-.331.029.351-.174,0,0Zm.311-.007Zm.007-.01Zm-.019-.393Z" transform="translate(17.068 41.275)" fill="#eae3cd"/>
      <path id="Path_9263" data-name="Path 9263" d="M3789.561,2481.724c.579,2.627-.053-.249-.053-.249-1.556-4.749.465,1.687.465,1.687-.557,1.248-1.359,3.023-1.359,3.023l-3.027,1.167-2.948-1.3c-2.5-2.66-.949-7.2-.186-10.3.072-.3.114-.62.114-.62l1.261-2.8,2.817-1.136,2.768,1.215,1.17,2.83a28.428,28.428,0,0,1-.973,6.04,2.571,2.571,0,0,0-.049.445Zm0,.026Zm0,0Z" transform="translate(29.612 34.115)" fill="#eae3cd"/>
      <path id="Path_9264" data-name="Path 9264" d="M3814.857,2464.443l1.182,2.84-.881,2.178.914,2.273-1.205,2.827-2.84,1.159c-3.489-.039-7.589-2.3-6.3-6.534.58-1.9,1.752-3,3.476-4.717l2.832-1.172q1.41.574,2.824,1.146Z" transform="translate(39.202 31.002)" fill="#eae3cd"/>
      <path id="Path_9265" data-name="Path 9265" d="M3832.983,2469.612l-.354,1.1.449-1.149s2.467-.9,1.5-.809l-1.442.652.58-1.478,2.991-1.13,2.843,1.225,1.084,2.83a5.9,5.9,0,0,1-5.7,5.526l-2.716-1.12c-.488-1.094-1.166-2.653-1.166-2.653l1.081-2.595.848-.4Zm.157-.2c-.032.085.033-.05,0,0Z" transform="translate(48.922 31.878)" fill="#eae3cd"/>
      <path id="Path_9266" data-name="Path 9266" d="M3855.129,2476.31a5.055,5.055,0,0,1,4.877,5.742l-1.356,3.039-2.768,1.14-2.731-1.212s-2.263-2.112-2.228-4.608l1.261-2.991c.979-.37,1.9-1.166,2.945-1.11Zm-.229,8.28Zm-1.186-.468,1.159.455c-.386-.154-1.51-.681-1.159-.455Zm-1.749-2.863Zm.009-.311s.02,1.123.01-.088c0-.05-.006.026-.01.088Z" transform="translate(56.505 35.109)" fill="#eae3cd"/>
      <path id="Path_9267" data-name="Path 9267" d="M3849.607,2527.833c-.181,5.86-.6.183.353,1.556.079.111.085.1.085.1l1.084,2.875-1.172,2.791-2.8,1.091-2.84-1.16a10.537,10.537,0,0,1-3.095-7.157l1.147-2.97c1.244-.524,3.022-1.261,3.022-1.261l3.027,1.2q.6,1.466,1.193,2.932Z" transform="translate(52.936 51.49)" fill="#eae3cd"/>
      <path id="Path_9268" data-name="Path 9268" d="M3854.9,2536.5l2.771-1.143,2.1.832c.229-.01.563-.013.563-.013l2.821,1.133,1.2,2.86-1.156,2.849-2.807,1.173c-.344,0-.688,0-1.032,0-2.031-.056-4.448-2.077-4.448-2.077l-1.149-2.8c.461-1.147,1.119-2.788,1.139-2.811Zm5.857.213Zm-.02-.013Zm-.036-.03Z" transform="translate(57.979 54.744)" fill="#eae3cd"/>
      <path id="Path_9269" data-name="Path 9269" d="M3874.887,2566.539l-1.2,2.883-2.82,1.116c-9.925-.311-2.018-.026-1.736-.291,1.238-1.153-2.719,1.012-2.719,1.012-1.126-.468-2.715-1.146-2.715-1.146l-1.075-2.729,1.136-2.738c2.166-2.191,7.207-2.109,6.87-2.116l.291-.007,2.807,1.14q.575,1.44,1.157,2.876Z" transform="translate(61.901 63.814)" fill="#eae3cd"/>
      <path id="Path_9270" data-name="Path 9270" d="M3858.214,2581.845a3.722,3.722,0,0,0,1.422,1.4l1.2,2.584-1.153,2.483-2.8,1.543c-.736.161.616.269-1.222.147a7.056,7.056,0,0,1-3.252-1.647c-.609-.413-.5-.279-.5-.279l-1.6-2.764,1.68-3.479,3.36-1.5c.954.5,1.91,1.012,2.863,1.516Zm.649,1.019Zm-2.545-1.137s-1.14-.114.472.115l1.647.665s-2.636-.91-2.119-.78Z" transform="translate(56.621 70.006)" fill="#eae3cd"/>
      <path id="Path_9271" data-name="Path 9271" d="M3868.555,2604.859l1.225,2.961-1.225,2.928-2.928,1.225h-.911l-2.928-1.225-1.225-2.961,1.225-2.928,2.928-1.222a32.238,32.238,0,0,1,3.839,1.222Z" transform="translate(60.247 77.465)" fill="#eae3cd"/>
      <path id="Path_9272" data-name="Path 9272" d="M3856.9,2631.436l.315,3.239-2.064,2.188c-.95.367,1.382.377-2.768,1.049a9.43,9.43,0,0,1-1.7.045l-2.695-1.2c-.479-1.074-1.14-2.6-1.14-2.6l1.107-2.568s3.473-1.717,2.3-1.1l1.241-.819,3.007-.334,2.391,2.1Zm-6.26-1.094Zm.319-.059Z" transform="translate(55.236 98.747)" fill="#eae3cd"/>
      <path id="Path_9273" data-name="Path 9273" d="M3843.966,2646.136l1.225,2.925v.914l-1.225,2.928-2.961,1.225-2.928-1.225-1.225-2.928v-.914l1.225-2.925,2.96-1.225q1.465.609,2.929,1.225Z" transform="translate(50.879 98.747)" fill="#eae3cd"/>
      <path id="Path_9274" data-name="Path 9274" d="M3850.772,2668.839l-2.794,1.673-2.528-1.172-1.255-2.732a5.262,5.262,0,0,1,2.909-5.188l2.787-1.419,2.68,1.229a28.332,28.332,0,0,1,1.241,2.889,7.031,7.031,0,0,1-1.088,3.236,7.7,7.7,0,0,1-1.952,1.484Zm-.013,0Zm.027-.026Zm.016-.033Zm1.1-2.087c.285-.065.033-.176,0,0Zm-5.614-4.405-.484,1.628s1.883-2.886,1.106-2.3c0,0-.753.839-.622.675Zm.786-.8Z" transform="translate(54.016 98.747)" fill="#eae3cd"/>
      <path id="Path_9275" data-name="Path 9275" d="M3875.417,2642.867l-.227.439.139.01,2.8,1.313,1.149,2.752-1.205,2.722-2.826,1.228c-5.159.193-8.572-3.835-8.9-8.352l1.179-3.207c1.372-.57,3.325-1.366,3.325-1.366l3.364,1.294c.4,1.058.8,2.113,1.205,3.167Z" transform="translate(63.556 98.747)" fill="#eae3cd"/>
      <path id="Path_9276" data-name="Path 9276" d="M3875.2,2602.245l3.564,1.323.841,3.731.125.013,2.8,1.353,1.136,2.725-1.215,2.709-2.834,1.225a8.2,8.2,0,0,1-.845-.013,9.224,9.224,0,0,1-8.2-8.317l1.189-3.324c1.382-.577,3.439-1.458,3.439-1.425Z" transform="translate(65.267 78.257)" fill="#eae3cd"/>
      <path id="Path_9277" data-name="Path 9277" d="M3889.986,2576.185s.878,1.933.917,1.985c.151.2.4.479.4.479l1.058,2.915-1.1,2.751-2.755,1.078-2.889-1.1a11.669,11.669,0,0,1-3.7-9.846l1.294-2.778,2.607-1.162,2.565,1.146,1.327,2.755c.261,2.355.225,1.5.281,1.778Zm.194.593c.019.056,0-.019,0,0Z" transform="translate(68.879 67.9)" fill="#eae3cd"/>
      <path id="Path_9278" data-name="Path 9278" d="M3888.382,2543.3s-.054,1.113.081,1.195l.056.033,1.916,2.437-.183,2.958-2.284,1.889-3.085-.14c-4.32-1.894-5.4-7.393-5.058-12.388l1.37-2.991,2.9-1.228,2.866,1.264a13.545,13.545,0,0,1,1.408,6.745c.007.114,0,.111.014.226Z" transform="translate(68.119 56.15)" fill="#eae3cd"/>
      <path id="Path_9279" data-name="Path 9279" d="M3873.93,2520.008c-.046-.632.491.5.39.4.249.246.3.295.3.295l1.173,2.794-1.238,2.873-2.859,1.166-2.785-1.206a11.094,11.094,0,0,1-2.77-8.1l1.175-2.729,2.706-1.133,2.666,1.143a12.784,12.784,0,0,1,1.238,4.5Zm.023.052Zm-.01.023Zm-.006-.078Zm0,0Zm0,0Zm0-.007Zm0,.007Zm0,0Zm0,0Z" transform="translate(62.527 48.428)" fill="#eae3cd"/>
      <path id="Path_9280" data-name="Path 9280" d="M3858.948,2500.375l3.282-.993,2.748,1.134,1.078,2.79-1.15,2.853c-1.746,1.838-3.239,2.552-6.387,2.863a4.452,4.452,0,0,1-3.691-.783,8.694,8.694,0,0,1-1.527-2.807c-.059-2.9.914-3.023.914-3.023.58-.609-1.117-.465,3.275-1.73.407-.118,1.071-.19,1.458-.3Zm-.295,8.559Zm.01-.007Zm-.855-7.959.233.082.57.1,1.192.616s-2.427-.9-1.995-.8Z" transform="translate(58.379 42.836)" fill="#eae3cd"/>
      <path id="Path_9281" data-name="Path 9281" d="M3882.013,2485.583l1.449-2.555c1-.455,2.417-1.081,2.417-1.081l1.684.78,2.06.589,1.186,3.348-1.236,3.2-2.9.881c-3.278-.626-3.373-1.042-4.064-2.057a4.6,4.6,0,0,1-.594-3.1Zm7.587-.017-.95-1.837s1.127,2.99.95,1.837Z" transform="translate(68.402 36.862)" fill="#eae3cd"/>
      <path id="Path_9282" data-name="Path 9282" d="M3888.215,2480.912l-2.611-1.186c-.478-1.166-1.144-2.827-1.144-2.827l1.2-2.777,2.808-1.147c6.3.037,3.557.855,3.557.855l2.79,1.193,1.15,2.869-1.209,2.807-2.823,1.143a11.317,11.317,0,0,1-3.717-.93Z" transform="translate(70.214 33.868)" fill="#eae3cd"/>
      <path id="Path_9283" data-name="Path 9283" d="M3902.754,2508.308l1.206,2.915-1.206,2.879-2.879,1.2h-.911l-2.879-1.2-1.205-2.912,1.205-2.882,2.879-1.2a30.93,30.93,0,0,1,3.79,1.2Z" transform="translate(84.961 45.19)" fill="#eae3cd"/>
      <path id="Path_9284" data-name="Path 9284" d="M3910.658,2522.36l1.205,2.911-1.205,2.88-2.879,1.205h-.911l-2.88-1.205-1.2-2.912,1.2-2.879,2.88-1.2a30.942,30.942,0,0,1,3.79,1.2Z" transform="translate(84.961 49.883)" fill="#eae3cd"/>
      <path id="Path_9285" data-name="Path 9285" d="M3913.956,2552.51c-.308,0-1.133,2.526-1.133,2.526-1.035.419-2.5,1.005-2.5,1.005l-2.456-1.087-1.03-2.516c0-3.485,2.48-7.055,6.093-7.219l2.676,1,1.173,2.66-1.029,2.735s-3.41,1.179-2.352,1.068c0,0,.662-.22.557-.174Zm0,0Zm.213-.122c-.023.014.007-.009,0,0Z" transform="translate(84.961 58.437)" fill="#eae3cd"/>
      <path id="Path_9286" data-name="Path 9286" d="M3907.146,2576.808l1.2,2.879v.91l-1.2,2.88-2.911,1.2-2.88-1.2-1.205-2.88v-.91l1.205-2.879,2.912-1.206q1.44.6,2.879,1.206Z" transform="translate(84.961 68.269)" fill="#eae3cd"/>
      <path id="Path_9287" data-name="Path 9287" d="M3901.378,2613.516s-.219,1.094-.088-.357l-1.209,2.82c-1.205.485-2.918,1.163-2.918,1.163l-2.85-1.225-1.156-2.873c.053-3.446,2.83-5.594,6.181-7.828.393-.265.37-.292.37-.292l2.843-1.113,2.824,1.208,1.116,2.83-1.189,2.814a26.614,26.614,0,0,1-3.924,2.853Z" transform="translate(84.961 78.856)" fill="#eae3cd"/>
      <path id="Path_9288" data-name="Path 9288" d="M3892.112,2621.744c.236.262.469.527.695.8l2.653,1.192,1.447,3.417-1.46,3.386-3.486,1.54c-2.532.105-4.3-.1-6.862-2.8l-1.877-3.882c.666-1.533,1.629-3.714,1.629-3.714l3.707-1.523q1.774.79,3.554,1.582Zm-.934.357c-1.224-.151-.245-.049,0,0Z" transform="translate(70.436 98.747)" fill="#eae3cd"/>
      <path id="Path_9289" data-name="Path 9289" d="M3848.8,2437.263a11.848,11.848,0,0,1,2.87.747l2.164,2.365-.029,3.315-1.238,2.748-3.05,1.156a5.381,5.381,0,0,1-1.9-.347c-2.791-.98-4.8-4.249-3.544-7.144a4.473,4.473,0,0,1,4.4-2.843c.108,0,.216,0,.324,0Zm2.509,2.977Zm-1.28-.655c-.063.063-.06-.01,0,0Z" transform="translate(53.955 22.022)" fill="#eae3cd"/>
      <path id="Path_9290" data-name="Path 9290" d="M3868.293,2431.472c7.2.236,1.66-1.49,1.258-.088l-1.219,3.426-2.348,1.988-3.014-.151-1.926-2.24s.262-3.574.083-3.141c.173-.505.025-.04.035-.154,0-.013,1.628-7.183,6.947-7.023l.119.01,2.6,1.176c.462,1.028,1.107,2.486,1.107,2.486l-1.061,2.4s-3.02,1.327-2.581,1.307Z" transform="translate(60.904 17.734)" fill="#eae3cd"/>
      <path id="Path_9291" data-name="Path 9291" d="M3871.09,2458.007c-1.785.887,2.5-.855,2.5-.855l2.82,1.228,1.1,2.843-1.209,2.8a10.709,10.709,0,0,1-3.124,1.762s-1.566,2.05-3.259,2.018l-2.817-1.239-1.123-2.846c.059-2.686,2.184-4.592,5.03-5.676.148-.062.008,0,.079-.036Zm2.22,7.487a3.867,3.867,0,0,0,.709-1.608c-.236.537-.472,1.071-.709,1.608Z" transform="translate(63.004 28.745)" fill="#eae3cd"/>
      <path id="Path_9292" data-name="Path 9292" d="M3871.778,2467.3a33.467,33.467,0,0,1,1.431,3.541,3.6,3.6,0,0,0,.387.838l.217,3.046-2.058,2.326-3.063.193-2.279-2.014a29.241,29.241,0,0,1-1.314-3.475c-.36-.993-.4-.97-.4-.97l-.163-3.01c.815-.94,1.985-2.27,1.985-2.27l2.98-.174q1.14.989,2.28,1.969Z" transform="translate(61.799 31.634)" fill="#eae3cd"/>
      <path id="Path_9293" data-name="Path 9293" d="M3814.63,2434.469l2.624,1.1.43.914,1.641.636,1.156,3.02-1.222,2.921-2.856,1.065a5.762,5.762,0,0,1-5.568-5.762l1.169-2.731c1.058-.472,2.626-1.193,2.626-1.16Zm3.738,3.174-.471-.7s.727,1.254.471.7Zm-.475-.711Z" transform="translate(41.105 21.034)" fill="#eae3cd"/>
      <path id="Path_9294" data-name="Path 9294" d="M3779.593,2451.446l1.114,2.7-1.114,2.659-2.662,1.114h-.911l-2.663-1.114-1.114-2.692,1.114-2.663,2.663-1.114a27.278,27.278,0,0,1,3.573,1.114Z" transform="translate(26.02 26.175)" fill="#eae3cd"/>
      <path id="Path_9295" data-name="Path 9295" d="M3741.772,2476.971l1.091,2.637-1.091,2.6-2.6,1.091h-.91l-2.6-1.091-1.091-2.633,1.091-2.6,2.6-1.09a26.146,26.146,0,0,1,3.515,1.09Z" transform="translate(0 34.67)" fill="#eae3cd"/>
      <path id="Path_9296" data-name="Path 9296" d="M3721.647,2491.819l.269,3.145-2.018,2.247c-2.765,1.231-5.346,2.807-8.077,4.084l-2.814.17-2.113-1.794-.173-2.732,1.789-2.162c2.668-1.458,5.115-3.23,7.759-4.713l3.027-.289q1.173,1.023,2.351,2.044Z" transform="translate(0 39.873)" fill="#eae3cd"/>
      <path id="Path_9297" data-name="Path 9297" d="M3712.138,2508.514l.007.076c-.059-2.66-.167-.9-.167-.9a9.279,9.279,0,0,1,1.267,3.495l-1.048,2.784-2.876,1.189-2.931-1.13c-1.287-3.4-.95-2-1.435-3.525a8.535,8.535,0,0,1-.262-1.906l1.13-2.627c1.065-.472,2.571-1.123,2.571-1.123l2.516,1.067q.615,1.3,1.228,2.6Zm-6.465,3.535Zm-.276-.593.154.35s-.193-.632-.154-.35Zm-.009-.043Zm-.01-.039Zm-.01-.036Zm-.01-.033Z" transform="translate(0 44.754)" fill="#eae3cd"/>
      <path id="Path_9298" data-name="Path 9298" d="M3740,2442.51c.494,1.127,1.231,2.8,1.234,2.83l.168,2.653-1.075,2.814-2.951,1.176-2.918-1.176-1.075-2.814c.069-1.071.171-2.669.171-2.669l1.231-2.814,2.624-1.176q1.3.591,2.591,1.176Z" transform="translate(0 23.418)" fill="#eae3cd"/>
      <path id="Path_9299" data-name="Path 9299" d="M3760.494,2435.314c4.088.432,3.475,1.952,3.475,1.952l1.284,2.69-1.339,2.98-2.932,1.238-2.715-1.271a3.545,3.545,0,0,0-1.595-1.11c-.485-1.068-1.15-2.578-1.15-2.578l1.1-2.551s3.728-1.314,2.85-1.3a3.17,3.17,0,0,1,1.022-.049Zm-.756,7.73s1.038.027-.1-.023c0,0-.3-.039.1.023Zm-1.547-.544,1.071.456s-1.457-.734-1.071-.456Z" transform="translate(19.692 21.258)" fill="#eae3cd"/>
      <path id="Path_9300" data-name="Path 9300" d="M3792.885,2424.757l-1.818,1.389-3.085.272c-1-.845-2.408-2.05-2.408-2.05l-.269-3.132,2.143-2.414c1.4-.5-.213-.422,2.866-1.618a10.146,10.146,0,0,1,2.368-.458l2.83,1.153,1.215,2.813-1.136,2.8s-3.574,1.294-2.706,1.248Z" transform="translate(31.474)" fill="#eae3cd"/>
      <path id="Path_9301" data-name="Path 9301" d="M3818.326,2405.494l1.234,2.9-1.116,2.968-3.027,1.572c-1.075.439-2.6,1.048-2.6,1.048l-2.581-1.166a15.177,15.177,0,0,1-1.077-2.82,3.875,3.875,0,0,1,.573-2.136c1.307-2.486,5.758-3.41,5.758-3.41.947.351,1.89.7,2.837,1.045Zm-2.676,6.961Zm.006-.017Zm0-.01Zm.006-.009Zm0-.01Zm.007-.007Zm1.006-2.1s-.868,2-.656,1.746c1.91-2.32.646-1.147.652-1.622a1,1,0,1,0,0-.124Z" transform="translate(40.596)" fill="#eae3cd"/>
      <path id="Path_9302" data-name="Path 9302" d="M3844.88,2400.185l1.248,3-1.225,2.981c-.364.364-.9.9-.9.9l-2.981,1.222-3-1.245-1.225-2.984,1.225-2.981.9-.9,2.981-1.222q1.49.609,2.981,1.222Z" transform="translate(51.086)" fill="#eae3cd"/>
      <path id="Path_9303" data-name="Path 9303" d="M3874.421,2404.037l1.108,2.65v.91l-1.108,2.647-2.679,1.107-2.65-1.107-1.107-2.647v-.91l1.107-2.65,2.682-1.107q1.323.555,2.647,1.107Z" transform="translate(62.639)" fill="#eae3cd"/>
      <path id="Path_9304" data-name="Path 9304" d="M3892.636,2427.5l.813,2.9c-.171.717-.423,1.788-.423,1.788l-1.487,2.9-2.234,1.212-2.2-1.212a13.934,13.934,0,0,1-1.906-4.668l.808-2.915,3.332-1.209,3.3,1.209Z" transform="translate(69.463 18.311)" fill="#eae3cd"/>
      <path id="Path_9305" data-name="Path 9305" d="M3913.272,2489.012l1.2,2.889-1.2,2.86-2.86,1.2h-1.789l-2.855-1.2-1.2-2.893,1.2-2.856,2.855-1.2h1.789q1.429.594,2.86,1.2Z" transform="translate(84.961 38.74)" fill="#eae3cd"/>
      <path id="Path_9306" data-name="Path 9306" d="M3919.063,2488.973c.37,3.721.095,1.245.524,2.466l2.866,1.566,1.307,3.338-1.382,3.249-3.233,1.268c-5.562-.2-8.694-6.981-8.589-12.451l1.268-3,2.945-1.274,2.915,1.221,1.333,2.965a6.143,6.143,0,0,0,.046.655Zm.838,3.069c2.47,3.74.266.452,0,0Zm0,.026Zm-.039-.082Zm.006.033Zm-.009-.039Zm0,0Zm0-.01Zm0,.007Zm-.006-.007Zm0,0Zm-.007,0Zm0-.007Zm-.01,0Zm0,0Zm-.007-.006Zm-.222-.125c.036,0,.278.118,0,0Zm-.272-.1Zm-.013,0Zm-.013-.007Zm-.013-.007Zm-.014,0Z" transform="translate(84.961 38.632)" fill="#eae3cd"/>
      <path id="Path_9307" data-name="Path 9307" d="M3917.271,2437.456l-1.271,3.011-2.987,1.211a17.13,17.13,0,0,1-8.654-2.7s-6.276-5.2-1.189-8.818c1.877-1.333,5.47-1.248,5.47-1.248l2.905,1.215s-.072,3.069,1.52,3.066l2.984,1.255c.406,1,.816,2,1.222,3Z" transform="translate(84.961 19.376)" fill="#eae3cd"/>
      <path id="Path_9308" data-name="Path 9308" d="M3905.984,2428.233c.363.412.163.17.163.17l.092.088,1.16,2.807-1.228,2.86-2.85,1.156-2.794-1.2a21.085,21.085,0,0,1-2.866-4.523c-1.078-1.955-.58-.862-.58-.862l-1.074-2.764c.468-1.13,1.143-2.722,1.143-2.722l2.725-1.081,2.738,1.127a19.939,19.939,0,0,1,2.856,4.215c.39.646.23.384.269.42.016.013.3.373.246.308Z" transform="translate(84.961 17.108)" fill="#eae3cd"/>
      <path id="Path_9309" data-name="Path 9309" d="M3891.322,2390.594a9.039,9.039,0,0,1,.62,1.432l1.091.475,1.172,2.807-1.179,2.771-2.814,1.215c-3.141.069-7.995-.934-6.465-5.919a8.911,8.911,0,0,1,1.782-2.751l2.862-1.229,2.931,1.2Zm-2.252.639Zm-.083-.013c-.462-.049-.144-.023,0,0Z" transform="translate(69.58)" fill="#eae3cd"/>
      <path id="Path_9310" data-name="Path 9310" d="M3879.852,2382.114c.534-1.232,1.307-2.984,1.307-2.984l2.971-1.2,2.885,1.265a10.533,10.533,0,0,1,1.589,2.387l.957.439,1.133,2.807-1.222,2.762-2.833,1.162c-2.359.007-4.186-1.759-5.549-3.77,0,0-.747-1.7-1.238-2.869Zm1.206,2.873c.13.314-.043-.043,0,0Zm0-.01c.013.032-.016-.016,0,0Zm-.006-.01c.012.03-.007-.01,0,0Zm-.007-.02Zm7.556-3.364Zm0,0Zm-.049-.023Zm-.006,0Zm-1.723-.812c-1.111-.036,2.286,1.277,1.421.534,0,0-1.746-.564-1.421-.534Z" transform="translate(68.206)" fill="#eae3cd"/>
      <path id="Path_9311" data-name="Path 9311" d="M3857.14,2373.021l1.222,2.961-1.222,2.929-2.928,1.225h-1.792l-2.928-1.225-1.225-2.961,1.225-2.929,2.928-1.225h1.792c.976.41,1.952.816,2.928,1.225Z" transform="translate(55.717)" fill="#eae3cd"/>
      <path id="Path_9312" data-name="Path 9312" d="M3833.226,2385.517l1.14,2.758-1.14,2.729-2.725,1.14h-.911l-2.729-1.14-1.139-2.762,1.139-2.725,2.729-1.14a28.347,28.347,0,0,1,3.636,1.14Z" transform="translate(46.658)" fill="#eae3cd"/>
      <path id="Path_9313" data-name="Path 9313" d="M3804.949,2401.5l1.067,2.548v.91l-1.067,2.552-2.585,1.068-2.548-1.068-1.068-2.552v-.91l1.068-2.548,2.581-1.068,2.552,1.068Z" transform="translate(36.034)" fill="#eae3cd"/>
      <path id="Path_9314" data-name="Path 9314" d="M3906.842,2466.408a3.07,3.07,0,0,0,1.071.5l1.222,2.978-1.13,3.049-3.04.93a9.29,9.29,0,0,1-1.739-.006c-2.742-.337-5.241-4.284-1.595-7.4l2.7-1.009q1.258.482,2.513.956Zm.164,5.031.284-.972s-.855,1.647-.507,1.29c-1.32,1.743-.043.219.223-.318Z" transform="translate(84.961 31.304)" fill="#eae3cd"/>
      <path id="Path_9315" data-name="Path 9315" d="M3924.746,2479.294l1.221,2.948-1.221,2.915-2.915,1.222h-.911l-2.918-1.222-1.219-2.948,1.219-2.915,2.918-1.222a31.414,31.414,0,0,1,3.826,1.222Z" transform="translate(84.961 35.506)" fill="#eae3cd"/>
      <path id="Path_9316" data-name="Path 9316" d="M3932.544,2495.206l1.176,2.843-1.176,2.811-2.81,1.175h-.911l-2.81-1.175-1.176-2.844,1.176-2.81,2.81-1.176a29.936,29.936,0,0,1,3.721,1.176Z" transform="translate(84.961 40.796)" fill="#eae3cd"/>
      <path id="Path_9317" data-name="Path 9317" d="M3917.422,2526.421l3.531.1,2.813,1.221,1.176,2.8-1.176,2.768a18.1,18.1,0,0,1-6.361,1.32l-2.813-1.16-1.176-2.961,1.176-2.928c.943-.39,1.811-1.189,2.83-1.16Z" transform="translate(84.961 51.642)" fill="#eae3cd"/>
      <path id="Path_9318" data-name="Path 9318" d="M3925.548,2582.052l1.15,2.974-1.2,2.889-2.136.806-2.459.963-2.713-1.075-1.061-2.656,1.035-2.82c.554-.642-.885.468.976-1.111a6.849,6.849,0,0,1,3.256-1.038,2.046,2.046,0,0,0,.35-.02c.937.364,1.87.724,2.8,1.088Zm-1.091,5.774c-.442.469.292-.3,0,0Z" transform="translate(84.961 69.98)" fill="#eae3cd"/>
      <path id="Path_9319" data-name="Path 9319" d="M3902.767,2628.822a20.814,20.814,0,0,1,2.188.387l2.057-.819,2.729,1.251,1.149,2.846v.213c-.2,3,.7,2.932-3.262,4.488a10.883,10.883,0,0,1-5.225.553l-3.111-1.172c-.521-1.392-1.251-3.387-1.251-3.387l1.363-3.253,3.147-1.126.216.019Zm.593,1.887-.478,1.559.612-1.759c-.111.161-.235.328-.134.2Zm1.582-1.494Z" transform="translate(84.961 98.747)" fill="#eae3cd"/>
    </g>
    <path id="Path_7271" data-name="Path 7271" d="M5150.683,1696.306c12.415,2.611,25.34,5.2,28.226,5.349,46.247,2.284,57.346,20.566,55.2,64.006-.789,15.948-40.312-6.922-48.205-4.718-.88.246-7.454-2.7-6.461.848,4.646,16.635,51.792,14.133,55.29,26.661,1.46,5.222-2.429,11.091-2,16.827.213,2.828.331,19.045-5.692,20.726-10.765,3.008-60.558-13.169-69.141-18-1.068-.6-4.08-.167-4.188,2.126-.5,10.13,66.657,19.4,69.7,30.289,2.78,9.955-19.9,87.85-33.714,91.71-7.454,2.082-43.282-33.841-54.508-30.707-2.169.606,3.353,7.874,4.256,8.383,16.711,9.414,29.543,25.615,46.126,34.958.378.212,1.019.222,1.138.64,5.628,20.162-53.128-23.437-61.4-21.123-3.749,1.044,1.641,7.631,2.479,8.874,7.283,10.779,47.734,20.153,50.958,31.7,1.436,5.138-52.641,84.938-58.136,89.917-20.67,18.723-39.7-50.557-55.211-40.08a3.288,3.288,0,0,0-.783,4.049c4.981,7.375,50.943,53.513,38.369,62-46.953,31.723-29.574-43.409-54.219-36.528-15.3,4.276,26.209,59.582,26.232,59.657.9,3.219-48.344,48.637-53.645,58.043-.263.468-1.449,3.274-1.918,3.405-1.207.34-.389-3.9-.353-4.684.32-6.458-16.327-52.854-20.2-51.771-2.223.621,9.641,42.387,16.65,52.763.8,1.185.177.635.5,1.775.368,1.314,3.034,2.578,2.127,4.19l-1.279,2.271c-44.606,30.135-84.295,23.545-133.148,37.189-4.456,1.248,9.8-32.938,10.107-39.185.563-11.436,8.319-81.745,12.268-82.847,4.448-1.243,17.3-.865,23.924.016,12.857,1.716,15.109-9.668,2.351-12.138-6.307-1.224-17.353-1.064-12.987-8.814,1.01-1.791,1.626-10.979,3.486-11.5,9.4-2.621,81.218,9.856,75.762-9.677-5.3-19-61.69,8.371-59.687-32.132.688-13.91,23.336-38.771,29.922-50.461,3.824-6.79,19.2-38.854,22.389-39.745,5.337-1.487,85.979,6.336,79.108-18.268-1.816-6.5-60.025,4.36-64.248-10.761-.755-2.7,3.367-22.95,5.837-23.636,8.087-2.262,81.872,25.9,71.22-12.237-.509-1.822-6.052.09-7.6.206-19.211,1.442-44.672,4.753-61.625-4.8-.378-.214-1.019-.221-1.134-.64-13.5-48.34,74.385-5.427,76.065-39.424.156-3.164,2.489-11.938.718-14.558-6.865-10.164-65.892,12.835-68.163,9.472-5.73-8.483-.64-32.818,2.651-41.89,11.821-32.6,6.562-57.329,44.208-67.847,11.309-3.158,24.143,2.825,34.435-.049,4.487-1.25,16.343-6.362,21.21-5.6l-.2,5.471c-3.98,80.527-13.129,156.224-43.03,233.063-18.7,48.044-49.76,88.327-74.849,132.864-8.246,14.637-18.412,27.375-26.579,41.871-1.217,2.159-10.7,21.171-10.384,21.081,3.2-.893,10.17-18.052,11.518-20.443,13.153-23.347,31.755-44.511,47.613-65.926,73.465-99.212,125.075-219.874,122.647-342.215Z" transform="translate(-3693.427 -1761.736)" fill="#eae3cd" fill-rule="evenodd" opacity="0.05"/>
    <path id="Path_7270" data-name="Path 7270" d="M2152.693,2297.1a61.662,61.662,0,0,0-2.584-9.466c-3.659-10.412-9.4-20.513-11.551-29.2-.1-.4.183-.811.274-1.217,2.786-12.405,7.532-18.128,10.766-26.846a55,55,0,0,0,3.227-15.757c.193-2.731.266-5.748.184-9.149-.025-1.05-.076-2.069-.142-3.072-.141-2.159-.373-4.211-.685-6.166-.089-.563-.194-1.108-.3-1.655a54.754,54.754,0,0,0-7.183-18.771c-4.051-6.639-8.962-11.826-13.307-16.834-4.3-4.962-8.036-9.766-9.8-15.647-.119-.4-.242-.792-.343-1.2-2.436-9.833-.572-23.175-2.9-32.59-1.425-5.752-8.766-6.876-12.212-9.662a4.516,4.516,0,0,1-1.685-2.4c-2.256-9.112,1.97-17.554-.345-26.9-.234-.944-1.319-1.693-2.847-2.339-5.316-2.25-16.306-3.2-18.226-6.229-1.511-2.386,3.439-9.307,2.731-12.162-3.923-15.853-9.291-35.209-13-50.19-4.155-16.785-19.088-28.12-20.72-44.255-.293-2.9,1.912-8.515,1.912-8.515a19.992,19.992,0,0,0-2.309,4.591c-2.61,11.62-4.525,25.788-3.331,37.578,3.469,34.318-8.53,55.878-29.017,70.388q-1.88,1.33-3.853,2.585l-.15.1c-4.474,2.833-1.451,15.523-5.314,17.969-2.566,1.624-4.8,3.182-6.8,4.695q-2.446,1.856-4.417,3.624c-13.244,11.92-11.532,21.289-23.255,35.946a86.988,86.988,0,0,1-7.164,7.846c-.316.309-.612.612-.942.925-10.53,10.045-24.29,14.969-36.246,22.8a58.932,58.932,0,0,0-13.724,11.971c-6.167,7.556.8,32.877-7.252,37.976-8.093,5.125-13.759,9.482-17.844,13.7-.586.6-1.147,1.208-1.67,1.809-10.837,12.446-8.61,24.392-14.845,52.152-.091.405.076.995-.274,1.216-10.39,6.58-15.994,18-18.576,31.457-5.693,29.686,3.324,69.3,8.161,88.849,2.4,9.678-10.441,23.048-4.669,32.168,5.187,8.192,11.118,15.912,16.305,24.1,2.356,3.722-4.966,13.574-2.607,17.3.322.509,14.591-30.3,16.434-33.36,9.557-15.846,37.2-49.432,59.152-56.216a21.688,21.688,0,0,1,11.146-.812q2.032-5.011,4.092-10.027,2.45-5.964,4.968-11.914c-5.662-7.054-12.178-15.5-21.116-18.4-4.715-1.528-9.721-1.842-14.647-2.386-2.806-.31-5.6-.714-8.382-1.165q-3.013-.489-6.015-1.06c-5.054-.973-10.079-2.109-15.079-3.326-4.523-1.1-9.1-2.2-13.584-3.013-.181-.033-.41-.057-.664-.079-1.914-.166-5.434-.211-3.3-2.817a4.292,4.292,0,0,1,2.355-1.339c3.507-.887,9.206.559,13.507,1.464a25.306,25.306,0,0,0,4.086.633c8.393.2,19.792.768,30.613,3.088,12.1,2.594,23.474,7.378,29.117,16.29,1.2,1.889,3.626,3.682,5.892,5.647q.938-2.146,1.888-4.29c4.78-10.752,15.164-21,5.937-32.546-4-4.994-6.516-10.3-9.9-15.331a41.841,41.841,0,0,0-6.532-7.741c-11.745-10.723-25.6-21.689-36.3-33.77q-1.582-1.786-3.067-3.607c-.175-.215-.36-.428-.533-.645-1.873-2.341-10.136-11.238-8.09-13.74,1.474-1.807,7.252,2.2,12.307,6.21,3.657,2.9,6.937,5.814,7.93,6.532.652.471,1.3.927,1.953,1.388q3.263,2.316,6.491,4.525c9.22,6.331,18.081,12.3,25.585,19.906a70.684,70.684,0,0,1,7.894,9.489c.986,1.427,1.923,2.924,2.82,4.477a66.458,66.458,0,0,1,3.1,5.984c3.046,6.775,2.823,12.745,4.531,19.646a10.667,10.667,0,0,1,.017,3.486c2.374-3.75,4.823-7.467,7.289-11.176,6.082-9.148,12.281-18.246,17.8-27.645-2.21-8.78-11.9-21.619-22.454-33.615-3.366-3.829-6.815-7.567-10.142-11.064-2.4-2.525-4.734-4.919-6.922-7.128-4.681-4.727-8.694-8.6-11.229-11.018-.391-.374-.838-.684-1.257-1.026a12.4,12.4,0,0,1-1.26-1.031c-6.116-6.408-13.843-13.463-18.713-20.941-.1-.158-.223-.314-.323-.472-.346-.546-1.862-2.472-.783-3.155.732-.464,1.826-.336,3.145.2,6.531,2.633,18.7,15.4,21.1,17.918,4.3,4.507,10.073,9.519,16.167,14.958,2.06,1.838,4.154,3.725,6.245,5.659,2.245,2.077,4.478,4.207,6.653,6.388,12.659,12.7,23.2,27.089,20.824,42.518a160.035,160.035,0,0,0,9.665-19.5q3.464-8.52,6.493-17.187c-1.023-13.844-11.612-33.941-21.62-48.86q-1.583-2.358-3.131-4.529a113,113,0,0,0-9.441-11.785c-5.629-5.9-8.412-13.955-13.358-20.137-.6-.754-6.879-11.234-6.443-11.136,9.106,2.046,25.226,21.005,37.5,39.227q1.9,2.814,3.656,5.583a163.863,163.863,0,0,1,9.512,16.8,57.3,57.3,0,0,1,2.305,5.481c.295.84.553,1.639.728,2.346.48,1.941,2.574,9.375,3.86,16.4,2.264-7.02,4.316-14.113,6.29-21.234.865-3.124,1.752-6.241,2.574-9.381.006-.052,0-.106.008-.158.865-7.879-1.533-16.566-5.315-25.131q-1.5-3.4-3.25-6.76c-2.2-4.228-4.626-8.352-7.055-12.274-2.1-3.4-4.193-6.631-6.14-9.631-1.238-1.908-2.425-3.738-3.5-5.435-9.556-15.1-15.709-25.346-15.082-25.743,3.44-2.178,14.747,12.725,16.053,14.781,3.4,5.376,7.378,10.708,11.236,16.143,2.232,3.147,4.414,6.331,6.431,9.578,1.437,2.315,2.781,4.662,3.992,7.054a63.184,63.184,0,0,1,3.1,7.112,45.921,45.921,0,0,1,2.569,10.962,60.432,60.432,0,0,1-.058,7.374c1.088-5.461,1.911-10.987,2.848-16.477a33.743,33.743,0,0,0,.656-5.944c0-.266-.025-.531-.039-.8-.095-1.9-.422-3.788-.466-5.692a29.444,29.444,0,0,1,.28-4.272c.093-.752.192-1.5.29-2.254a35.929,35.929,0,0,0,.348-4.065c.007-.532,0-1.064-.043-1.6-.035-.472-.095-.929-.14-1.394a60.579,60.579,0,0,0-6.776-22.351c-.95-1.848-1.94-3.7-2.925-5.565-3.106-5.88-6.16-11.885-7.749-18.3-.6-2.44-8.831-17.532-6.975-18.705,4.528-2.866,12.264,17.284,13.362,20.139,3.62,9.417,7.576,16.852,10.581,24.013,3.041,7.249,5.075,14.236,4.8,22.686-.023.695-.032,1.382-.087,2.1-.075.978-.2,1.991-.341,3.012-.035.256-.048.5-.087.756,0,.013,0,.025,0,.038q.044,1.275-.024,2.531c.194-.9.375-1.767.56-2.646.046-.215.093-.434.138-.648.207-.989.408-1.959.606-2.919.127-.619.256-1.242.378-1.848,1.052-5.194,1.947-9.924,2.715-14.149,1.216-6.7,2.108-12.084,2.771-15.9.5-2.9.883-4.932,1.169-5.895-.095-5.486-.537-11.284-1.151-17.154-1.528-14.621-4.151-29.705-5.357-41.644-.923-9.12,1.149-18.223.929-27.364-.24-10.049-.159-12.744-.128-12.7,4.055,6.408,2.135,25.681,2.921,33.443,1.793,17.736,6.938,35.178,7.6,52.922.036.974.014,1.929.01,2.889-.026,8.041-1.322,15.678-2.676,23.4-.652,3.722-1.308,7.465-1.826,11.292-.117.87-.272,1.73-.445,2.584a62.708,62.708,0,0,1-2.883,9.58c-.153.408-.305.817-.462,1.223q-.474,1.227-.964,2.448l-.053.13c-1.194,2.986-2.413,5.964-3.457,8.992a49.561,49.561,0,0,0-2.478,10.065,5.327,5.327,0,0,0,.2,2.822c-.8-1.8,2.815-8.229,3.55-10.04.623-1.534,1.293-3.049,1.966-4.563,1.057-2.379,2.153-4.742,3.321-7.069,1.228-2.446,2.533-4.853,3.871-7.241q2.413-4.308,5.047-8.487c1.373-2.176,2.774-4.333,4.229-6.454,1.335-1.945,3.6-4.7,5.654-7.437,2.1-2.8,3.975-5.578,4.4-7.447.839-3.737,3.888-13.079,5.937-9.842,2.444,3.86-7.052,17.667-8.487,21.193-.016.039-.034.077-.05.116a138.89,138.89,0,0,1-8.116,16.2q-1.728,3.033-3.519,6.051-1.76,2.973-3.524,5.948c-5.844,9.9-11.434,19.9-14.355,30.632-.014,1.533-.085,3.11-.174,4.7-.124,2.206-.308,4.456-.571,6.764q-.645,5.669-1.809,11.708c9.031-13.57,24.205-24.777,36.659-32.663a75.124,75.124,0,0,1,15.691-7.856,27.75,27.75,0,0,1,10.908-1.633,16.757,16.757,0,0,1,2.285.327c.422.095,3.028-.2,3-.07-.1.467-1.056,1.165-2.364,1.954-1.8,1.083-4.265,2.335-6.189,3.408-.747.416-1.41.8-1.916,1.143a5.205,5.205,0,0,0-.825.646c-5.365,5.629-13.01,10.57-20.72,15.114-5.953,3.51-11.945,6.784-16.955,9.954-3.4,2.15-18.183,19.476-22.582,22.889-2.263,8.708-5.139,17.813-8.467,27.155,8.237-8.173,20.163-16.51,32.25-23.237,4.427-2.464,8.871-4.71,13.168-6.653,9.953-4.5,19.1-7.376,25.27-7.524a16.331,16.331,0,0,0,3.244-.777c5.725-1.74,16.471-5.682,19.5-4.183a1.459,1.459,0,0,1,.609.518c.031.048-.149.184-.486.386-2.951,1.767-18.519,8.8-21.089,10.242-.086.048-.161.091-.217.127-8.462,5.36-16.969,10.459-25.665,15.284q-4.937,2.739-9.97,5.353c-2.888,1.5-5.794,2.98-8.741,4.417-2.3,1.125-10.09,6.828-17.741,12.019q-1.295.879-2.574,1.729c-5.574,3.7-10.729,6.811-13.2,7.276-3.648,9.232-7.646,18.6-11.857,27.976.371-.286.713-.566,1.019-.84a86.1,86.1,0,0,1,20.273-13.205c2.513-1.2,5.094-2.307,7.716-3.339,15.077-5.933,31.673-9.131,46.676-10.648,3.029-.308,17.147-.935,25.258,0,2.952.339,5.116.883,5.65,1.727.294.463-2.326,1.168-3.876,1.589-.48.131-.861.235-1.017.3-10.944,4.2-24.953,9.109-37.005,8.825-9.8-.231-24.706,4.572-34.009,8.755-.239.107-.493.233-.738.347-3.245,1.514-6.983,3.592-10.947,5.792-7.711,4.28-16.245,8.971-23.541,10.64-3.821,8.219-7.773,16.381-11.751,24.421-.4.82-.806,1.656-1.211,2.472.623-.337,1.257-.64,1.884-.967a153.48,153.48,0,0,1,32.275-12.238c3.741-.986,7.57-1.889,11.521-2.714q2.26-.471,4.517-.956c10.522-2.249,21.016-4.543,31.851-5.033,1.784-.081,3.565-.1,5.344-.1,5.41.008,10.8.347,16.166.789,4.38.36,8.748.78,13.1,1.125,5.335.423,15.925,2.086,15.925,2.086s-7.242,1.44-10.887,2.028c-6.033.971-12.1.737-18.224.676-2.668-.027-5.346-.024-8.039.131-3.358.192-6.661.536-9.927.982-11.759,1.607-23,4.708-34.195,8.3-5.82,1.865-11.632,3.853-17.5,5.833q-2.752.928-5.524,1.849c-4.515,1.493-14.065,5.932-22.177,7.277-3.994.662-7.645.585-10.165-.987-1.688,3.344-3.371,6.628-5.049,9.9-2.444,4.762-4.875,9.466-7.26,14.036a97.329,97.329,0,0,1,13.2-2.494c5-.635,9.351-.918,11.284-.965q3.258-.078,6.559-.137c6.769-.119,13.639-.128,20.485.2a147.367,147.367,0,0,1,20.049,2.211,91.134,91.134,0,0,1,20.314,6.159c.106.047.295.149.525.279,2.941,1.656,15.156,9.533,14.908,10.637-.752,3.348-8.183,2.8-16.622,1.075-6.014-1.233-12.529-3.063-17.52-4.523-3.761-1.1-6.66-1.991-7.8-2.246a47,47,0,0,0-12.337-.749c-5.544.222-11.033.717-16.443-.5-.495-.112-1.008-.159-1.514-.229-5.082-.693-10.678.54-15.9,1.146-1.265.147-2.516.267-3.722.3-6.391.154-12.5-3.556-17.96-5.389q-3.129,5.975-6.128,11.648c-1.434,2.717-2.847,5.391-4.22,7.992a7.808,7.808,0,0,1,3.7,2.4c8.164,12.9,19.739,22.934,29.656,38.6a82.223,82.223,0,0,1,7.8,17.242c.77,2.276,1.491,4.6,2.158,6.96a187.329,187.329,0,0,1,4.424,19.852c.422,2.528.781,4.966,1.066,7.259.143,1.15.273,2.272.381,3.344.224,2.209-1.316,6.723-2.465,10.97-1,3.684-1.7,7.167-.689,8.763a2.913,2.913,0,0,0,.566.652c4.958,4.27,23.438-10.234,32.524-23.272q1.046-1.5,1.913-2.962a24.421,24.421,0,0,0,2.927-6.781c1.687-7.512,5.842-10.519,10.516-13.1.671-.371,1.354-.732,2.04-1.1a57.212,57.212,0,0,0,5.034-2.906,24.6,24.6,0,0,0,3.519-2.819,21.417,21.417,0,0,0,1.654-1.8c3.785-4.635,4.565-11.377,5.371-18.008.767-6.309,1.557-12.517,4.984-16.714a67.787,67.787,0,0,1,6.191-6.141c3.5-3.261,6.925-6.754,7.908-11.134a8.124,8.124,0,0,0-.2-3.909c-.933-3.563-3.217-6.894-.446-10.289,8.018-9.822,15.679-19.838,23.2-30.5,3.755-5.319,7.475-10.8,11.186-16.5,3.548-5.447,7.088-11.083,10.645-16.98C2153.5,2311.515,2153.988,2304.313,2152.693,2297.1Z" transform="translate(-796.21 2053.373) rotate(-76)" fill="#eae3cd" opacity="0.15"/>
    <path id="Path_7269" data-name="Path 7269" d="M1110.281,1595.685q-.6-.884-1.213-1.758c-7.093-10.062-19.023-15.785-26.62-25.373-14.466-18.257-21.292-37.336-32.062-56.58-22.691-40.547-4.664-87.124,15.346-122.576,2.3-4.082,16.386-32.637,16.642-32.55,13.191,4.577-13.425,53.3-14.248,65.468-2.021,29.792-7.81,60.036,1.3,90.023,5.942,19.573,23.7,33.2,32.264,50.858,3.322,6.853,6.53,13.779,10.4,20.344,1.783,3.025,2.182,5.882,3.616,9.055,1.509,3.338,3.7,6.36,4.749,9.9a6.976,6.976,0,0,0,.866,2.181,1.851,1.851,0,0,0,2.042.792,25.53,25.53,0,0,0-.8-5.564c-.941-3.75-2.566-7.3-3.515-11.05a38.967,38.967,0,0,1-.726-14.537c4.157-35.882,22.664-69.243,28.054-105.244,1.588-10.622,2.335-21.37,4.386-31.9.388-2.006,5.7-22.487,9.821-19.319,10.105,7.773-5.74,42.7-7.309,53.169-6.514,43.5,8.966,99.708-18.43,135.319-1.782,2.318-1.879,6.39-2,10.431a143.483,143.483,0,0,1,8.794,22.266c9.182-46.343,53.951-86.365,61.678-133.717,3.431-21.017,12.242-42.992,12.5-64.289.168-13.781-6.562-24.468-.89-35.963.564-1.143,2.938-2.124,3.733-.486,7.783,16.054,2.79,41.649,2.879,58.486.288,53.926-9.923,103.423-38.32,150.254-4.715,7.777-24.976,30.016-36.191,44.834,2.48,9.854,4.562,19.781,6.068,28.458,3.585-5.991,7.754-11.676,10.924-16.671,26.232-41.372,74.055-81.356,121.646-93.715,12.708-3.3,25.878-3.023,38.692-.485a75.89,75.89,0,0,1,18.275,5.665c2.618,1.261,5.063,3.246,7.846,4,4.429,1.2,5.707,2,8.721,5.259,2.86,3.085,5.893,5.9,8.608,9.174,1.55,1.868,2.764,4.224,2.47,6.634-8.052-2.01-16.136-4.03-23.805-7.2-8.918-3.686-18.049-5.483-27.663-4.171-8.326,1.135-16.462,4.109-24.258,7.13a366.513,366.513,0,0,0-39.549,18.4c-9.153,4.869-18.774,9.807-26.937,16.273-21.607,17.121-46.559,58.481-72.377,71.035.018.736.014,1.412-.006,2.012-.191,5.314-.273,11.14-.283,17.318,18.686-25.015,67.492-38.522,88.779-46.893,10.98-4.319,19.047-13.211,28.216-20.292a86.153,86.153,0,0,1,12.846-8.739c8.334-4.3,17.79-5.754,26.9-8s18.432-5.615,24.645-12.641c1.211-1.372,2.349-2.914,4.01-3.681a2.435,2.435,0,0,1,2.909.318,2.7,2.7,0,0,1,.294,2.133,22.646,22.646,0,0,1-2.726,6.7c-2.688,4.995-5.472,10.125-9.471,14.212-3.892,3.976-9.009,6.47-13.585,9.546-5.236,3.519-10.514,6.991-15.463,10.911-17.52,13.879-79.082,45.545-101.31,53.084-15.312,5.194-32.885,28.264-45.677,33.086.288,13.674.684,27.72.936,40.8,2.426-17.218,27.813-31.348,41.9-37.435,47.274-20.432,112-16.334,155.371,12.021,32.911,21.513,43.39,40.743,58.2,75.009,3.626,8.384,5.715,20.417,5.761,29.628.01,1.362-.587,5.406-1.092,9.067a9.444,9.444,0,0,1,.121,5.3c-1.294,3.72-.79-.447-.121-5.3-2.47-9.756-14.469-24.937-17.008-31.389-28.76-73.148-84.946-60.785-155.407-63.286-21.152-.75-43.849-4.726-64.82-1.99-1.478.192-18.57,13.143-22.784,14.849.123,8.017.177,15.556.094,22.287-.092,7.575-.024,14.93.2,22.169,2.406-3.747,9.423-10.5,11.652-11.369,9.654-3.8,22.713-.129,32.349.528,29.063,1.971,46.394,30.141,80.039,31.335,10.295.365,39-17.035,48.055-10.064.4.313,1.709,1.5,1.3,2.679-7.508,21.635-45.815,27.8-64.9,26.5-6.069-.413-11.345-5.542-16.275-8.325-4.914-2.771-11.042-1.042-15.666-3.65-27.862-15.729-41.3-28.8-74.4-24.48,0,0-1.99-.688-2.073-.68.591,16.332,1.973,32.13,4.1,48.552,6.308-3.462,17.629-4.394,22.734-3.627,26.813,4.015,49.069,27.262,71.674,40.021,9.1,5.138,26.712,6.009,36.692,4.708,1.458-.191,20.042-2.539,19.724-1.622-8.443,24.333-77.019,18.857-94.2,5.639-8.648-6.653-13.011-21.851-22.444-26.5-4.2-2.071-24.023-7.9-33.1-10.682,1.728,12.205,3.847,24.843,6.336,38.377,4.362,23.74,12.949,62.912,16.048,86.68,4.645,35.619,21.878,69.015,36.729,99.645,3.264,6.731,21.492,38.657,20.413,40.061-2.54,3.3-6.784-1.081-7.142-3.818l1.284.636a2.659,2.659,0,0,0,1.76.868l-1.76-.868c-5.632-4.79-18.534-27.717-20.359-30.426-25.02-37.1-34.309-79.171-45.25-121.319a569.079,569.079,0,0,1-11.552-56.862c-2.616,18.225-20,26.39-29.726,46.1-.52,1.051-1.952,3.519-3.449,6.476.642,6.385.614,12.491-2.154,16.087a.743.743,0,0,1-.935.123c-3.17-2.439.1-10.3,3.089-16.21-.663-6.564-2.033-13.425-1.868-18.127.307-8.6,5.592-16.121,8.282-23.864,1.569-4.524,18.151-32.114,24.075-29.9-2.164-17.2-3.752-34.532-4.973-51.92-8.08,5.413-14.3,19.9-20.44,27.875-17.476,22.716-29.334,40.24-56.948,51.1-14.291,5.62-29.6,8.606-45.135,10.632-6.446.841-11.566,4.356-17.372,5.114l-1.866.243c-1.334-10.229,37.185-25.969,44.564-29.545,35.034-16.986,48.034-61.089,85.078-75.655,4.006-1.574,8.1-.666,11.462.3q-.9-14.5-1.534-29.038c-8.633-.707-17.361-3.386-27.706,1.629-36.633,17.76-71.493,85.574-119.168,76.3-9.382-1.823-14.811-15.458-23.457-19.726-7.837-3.864-20.406-9.333-24.029-16.806-3.243-6.681.677-15.361,8.808-12.539,4.5,1.563,14.755,17.385,25.73,25.725,2.892-17.113,10.113-48.914,13.115-55.476,18.184-39.764,43.69-80.592,88.607-92.25,14.431-3.747,35.691-4.373,49.963-2.719,1.5.173,3.438,1.8,4.955,3.275q-.439-11.906-.978-23.73c-.408-8.8-1.23-17.521-2.364-26.185-12.973,2.524-31.192,11.034-44.432,9.5-27.156-3.146-46.157-.5-70.949,9.252-13.987,5.5-25.784,58.346-39.533,53.574-5.006-1.738.114-20.8.445-25.69,1.469-21.638,19.731-48.68,39.985-57.434,25.124-10.856,66.11-4.483,92.012-.6,5.229.782,16.679,7.679,22.3,10.118-2.087-15.536-5.161-30.887-8.625-46.152-13.367,1.35-39.657,2.776-52.519.272-9.942-1.932-17.744-12.243-28.451-14.328-14.361-2.791-30.143,1.115-44.849-1.747-5.082-.987-31.89-27.329-31.211-28.21,8-10.4,38.091,16.34,45.173,18.8,10.953,3.8,74.232,5.775,92.052,6.985,5.885.4,13.445,7.012,18,10.4-1.693-7.2-3.448-14.385-5.209-21.567-1.49-6.088-3.405-9.411-9.33-12.064-9.484-4.246-18.3-10-28.172-13.426-33.053-11.471-91.243-11.493-104.308-50.007-2.853-8.411-23.312-31.928-15.868-41.606.194-.251,3.351,1.737,4.1,2.314,13.417,10.322,7.638,28.784,19.481,40.183,12.75,12.272,31.562,17.952,48.223,22.459,12.418,3.357,25.034,5.921,37.668,8.309,5.338,1.01,10.7,2.248,16.078,3.016,6.99,1,13.213,5.073,17.957,10.306a51.029,51.029,0,0,1,4.966,6.6C1115.152,1603.338,1112.823,1599.44,1110.281,1595.685Zm35.664,165.087c-21.026,4.076-18.2,12.593-37.449,29.393-29.558,25.8-53.01,24.145-80.489,59.866-8.018,10.423-19.618,44.89-29.553,59.788,4.538,1.024,8.959-.267,12.91-5.4,2.378-3.09,15.048-1.008,18.55-3.369,6.157-4.15,8.309-14.612,15.667-18.184,15.161-7.347,25.573-24.862,40.1-34.656,8.652-5.836,19.869-9.918,29.345-15.221,6.964-3.9,24.786-10.171,33.113-4.645-.812-22.6-1.4-45.173-2.2-67.57Zm-31.3-159.9c.014.045.027.091.043.13l.121.072-.164-.2Z" transform="translate(902.418 -1372.16) rotate(59)" fill="#eae3cd" fill-rule="evenodd" opacity="0.15"/>
  </g>
</svg>
